<svg xmlns="http://www.w3.org/2000/svg" xmlns:xlink="http://www.w3.org/1999/xlink" width="20" height="20" viewBox="0 0 20 20"><defs><style>.a{fill:#aaafcb;stroke:#707070;}.b{clip-path:url(#a);}.c{fill:#fff;stroke:#fff;stroke-width:0.044px;}</style><clipPath id="a"><rect class="a" width="20" height="20" transform="translate(16 342)"/></clipPath></defs><g class="b" transform="translate(-16 -342)"><g transform="translate(16 343.203)"><path class="c" d="M12,7.5l0,4.208a.6.6,0,0,0,.176.425l3.01,3.01.85-.85L13.2,11.459l0-3.959Z" transform="translate(-2.376 -2.688)"/><path class="c" d="M10.826,1.5A8.427,8.427,0,0,0,2.5,8.718H0l3.007,3.007L6.015,8.718h-2.3A7.205,7.205,0,1,1,5.135,14.36l-.948.74a8.421,8.421,0,1,0,6.64-13.6Z" transform="translate(0 -1.5)"/></g></g></svg>